Combination commands run at 2026-02-24T15:55:43.375Z
Commands file: /var/www/packagegenpoc/docs/combination-commands.json
Total: 13 command(s)

================================================================================
=== horizontal_9_gfx_plate ===
================================================================================
Command:
node src/index.js process-local --gpu --input-paths "/opt/live-streams/content/poctest/3508834.mp4,/opt/live-streams/content/poctest/3508834.mp4,/opt/live-streams/content/poctest/3508834.mp4,/opt/live-streams/content/poctest/3508834.mp4,/opt/live-streams/content/poctest/3508834.mp4,/opt/live-streams/content/poctest/3508834.mp4,/opt/live-streams/content/poctest/3508834.mp4,/opt/live-streams/content/poctest/3508834.mp4,/opt/live-streams/content/poctest/3508834.mp4" --start-plate /opt/live-streams/content/poctest/start_plate16_9.mp4 --end-plate /opt/live-streams/content/poctest/end_plate16_9.mp4 --gfx-manifest /opt/live-streams/content/poctest/3508834_gfx.json --output-path /opt/live-streams/content/poctest/output/3508834_h_9_gfx_plate_gpu.mp4 --s3-output-key packagetest/3508834_h_9_gfx_plate_gpu.mp4

Output:
{
  "tatMs": 203272,
  "steps": {
    "downloadMs": 0,
    "ffmpegMs": 121302,
    "gfxMs": 81969,
    "uploadMs": 3911
  },
  "outputPath": "/opt/live-streams/content/poctest/output/3508834_h_9_gfx_plate_gpu.mp4",
  "s3Uri": "s3://si-davs-playgroundvideos/packagetest/3508834_h_9_gfx_plate_gpu.mp4"
}
TAT (stitch): 203272 ms | Upload to S3: 3911 ms
Output on EFS: /opt/live-streams/content/poctest/output/3508834_h_9_gfx_plate_gpu.mp4
Output on S3: s3://si-davs-playgroundvideos/packagetest/3508834_h_9_gfx_plate_gpu.mp4


Exit code: 0

================================================================================
=== horizontal_4_gfx_plate ===
================================================================================
Command:
node src/index.js process-local --gpu --input-paths "/opt/live-streams/content/poctest/3508834.mp4,/opt/live-streams/content/poctest/3508834.mp4,/opt/live-streams/content/poctest/3508834.mp4,/opt/live-streams/content/poctest/3508834.mp4" --start-plate /opt/live-streams/content/poctest/start_plate16_9.mp4 --end-plate /opt/live-streams/content/poctest/end_plate16_9.mp4 --gfx-manifest /opt/live-streams/content/poctest/3508834_gfx.json --output-path /opt/live-streams/content/poctest/output/3508834_h_4_gfx_plate_gpu.mp4 --s3-output-key packagetest/3508834_h_4_gfx_plate_gpu.mp4

Output:
{
  "tatMs": 74713,
  "steps": {
    "downloadMs": 0,
    "ffmpegMs": 36965,
    "gfxMs": 37747,
    "uploadMs": 1875
  },
  "outputPath": "/opt/live-streams/content/poctest/output/3508834_h_4_gfx_plate_gpu.mp4",
  "s3Uri": "s3://si-davs-playgroundvideos/packagetest/3508834_h_4_gfx_plate_gpu.mp4"
}
TAT (stitch): 74713 ms | Upload to S3: 1875 ms
Output on EFS: /opt/live-streams/content/poctest/output/3508834_h_4_gfx_plate_gpu.mp4
Output on S3: s3://si-davs-playgroundvideos/packagetest/3508834_h_4_gfx_plate_gpu.mp4


Exit code: 0

================================================================================
=== horizontal_10_no_gfx_plate ===
================================================================================
Command:
node src/index.js process-local --gpu --input-paths "/opt/live-streams/content/poctest/3508834.mp4,/opt/live-streams/content/poctest/3508834.mp4,/opt/live-streams/content/poctest/3508834.mp4,/opt/live-streams/content/poctest/3508834.mp4,/opt/live-streams/content/poctest/3508834.mp4,/opt/live-streams/content/poctest/3508834.mp4,/opt/live-streams/content/poctest/3508834.mp4,/opt/live-streams/content/poctest/3508834.mp4,/opt/live-streams/content/poctest/3508834.mp4,/opt/live-streams/content/poctest/3508834.mp4" --start-plate /opt/live-streams/content/poctest/start_plate16_9.mp4 --end-plate /opt/live-streams/content/poctest/end_plate16_9.mp4 --output-path /opt/live-streams/content/poctest/output/3508834_h_10_no_gfx_plate_gpu.mp4 --s3-output-key packagetest/3508834_h_10_no_gfx_plate_gpu.mp4

Output:
{
  "tatMs": 144332,
  "steps": {
    "downloadMs": 0,
    "ffmpegMs": 144332,
    "gfxMs": 0,
    "uploadMs": 1681
  },
  "outputPath": "/opt/live-streams/content/poctest/output/3508834_h_10_no_gfx_plate_gpu.mp4",
  "s3Uri": "s3://si-davs-playgroundvideos/packagetest/3508834_h_10_no_gfx_plate_gpu.mp4"
}
TAT (stitch): 144332 ms | Upload to S3: 1681 ms
Output on EFS: /opt/live-streams/content/poctest/output/3508834_h_10_no_gfx_plate_gpu.mp4
Output on S3: s3://si-davs-playgroundvideos/packagetest/3508834_h_10_no_gfx_plate_gpu.mp4


Exit code: 0

================================================================================
=== horizontal_10_no_gfx_no_plate ===
================================================================================
Command:
node src/index.js process-local --gpu --input-paths "/opt/live-streams/content/poctest/3508834.mp4,/opt/live-streams/content/poctest/3508834.mp4,/opt/live-streams/content/poctest/3508834.mp4,/opt/live-streams/content/poctest/3508834.mp4,/opt/live-streams/content/poctest/3508834.mp4,/opt/live-streams/content/poctest/3508834.mp4,/opt/live-streams/content/poctest/3508834.mp4,/opt/live-streams/content/poctest/3508834.mp4,/opt/live-streams/content/poctest/3508834.mp4,/opt/live-streams/content/poctest/3508834.mp4" --output-path /opt/live-streams/content/poctest/output/3508834_h_10_no_gfx_no_plate_gpu.mp4 --s3-output-key packagetest/3508834_h_10_no_gfx_no_plate_gpu.mp4

Output:
{
  "tatMs": 117640,
  "steps": {
    "downloadMs": 0,
    "ffmpegMs": 117640,
    "gfxMs": 0,
    "uploadMs": 1625
  },
  "outputPath": "/opt/live-streams/content/poctest/output/3508834_h_10_no_gfx_no_plate_gpu.mp4",
  "s3Uri": "s3://si-davs-playgroundvideos/packagetest/3508834_h_10_no_gfx_no_plate_gpu.mp4"
}
TAT (stitch): 117640 ms | Upload to S3: 1625 ms
Output on EFS: /opt/live-streams/content/poctest/output/3508834_h_10_no_gfx_no_plate_gpu.mp4
Output on S3: s3://si-davs-playgroundvideos/packagetest/3508834_h_10_no_gfx_no_plate_gpu.mp4


Exit code: 0

================================================================================
=== horizontal_20_gfx_plate ===
================================================================================
Command:
node src/index.js process-local --gpu --input-paths "/opt/live-streams/content/poctest/3508834.mp4,/opt/live-streams/content/poctest/3508834.mp4,/opt/live-streams/content/poctest/3508834.mp4,/opt/live-streams/content/poctest/3508834.mp4,/opt/live-streams/content/poctest/3508834.mp4,/opt/live-streams/content/poctest/3508834.mp4,/opt/live-streams/content/poctest/3508834.mp4,/opt/live-streams/content/poctest/3508834.mp4,/opt/live-streams/content/poctest/3508834.mp4,/opt/live-streams/content/poctest/3508834.mp4,/opt/live-streams/content/poctest/3508834.mp4,/opt/live-streams/content/poctest/3508834.mp4,/opt/live-streams/content/poctest/3508834.mp4,/opt/live-streams/content/poctest/3508834.mp4,/opt/live-streams/content/poctest/3508834.mp4,/opt/live-streams/content/poctest/3508834.mp4,/opt/live-streams/content/poctest/3508834.mp4,/opt/live-streams/content/poctest/3508834.mp4,/opt/live-streams/content/poctest/3508834.mp4,/opt/live-streams/content/poctest/3508834.mp4" --start-plate /opt/live-streams/content/poctest/start_plate16_9.mp4 --end-plate /opt/live-streams/content/poctest/end_plate16_9.mp4 --gfx-manifest /opt/live-streams/content/poctest/3508834_gfx.json --output-path /opt/live-streams/content/poctest/output/3508834_h_20_gfx_plate_gpu.mp4 --s3-output-key packagetest/3508834_h_20_gfx_plate_gpu.mp4

Output:
{
  "tatMs": 499263,
  "steps": {
    "downloadMs": 0,
    "ffmpegMs": 326551,
    "gfxMs": 172711,
    "uploadMs": 7842
  },
  "outputPath": "/opt/live-streams/content/poctest/output/3508834_h_20_gfx_plate_gpu.mp4",
  "s3Uri": "s3://si-davs-playgroundvideos/packagetest/3508834_h_20_gfx_plate_gpu.mp4"
}
TAT (stitch): 499263 ms | Upload to S3: 7842 ms
Output on EFS: /opt/live-streams/content/poctest/output/3508834_h_20_gfx_plate_gpu.mp4
Output on S3: s3://si-davs-playgroundvideos/packagetest/3508834_h_20_gfx_plate_gpu.mp4


Exit code: 0

================================================================================
=== horizontal_30_gfx_plate ===
================================================================================
Command:
node src/index.js process-local --gpu --input-paths "/opt/live-streams/content/poctest/3508834.mp4,/opt/live-streams/content/poctest/3508834.mp4,/opt/live-streams/content/poctest/3508834.mp4,/opt/live-streams/content/poctest/3508834.mp4,/opt/live-streams/content/poctest/3508834.mp4,/opt/live-streams/content/poctest/3508834.mp4,/opt/live-streams/content/poctest/3508834.mp4,/opt/live-streams/content/poctest/3508834.mp4,/opt/live-streams/content/poctest/3508834.mp4,/opt/live-streams/content/poctest/3508834.mp4,/opt/live-streams/content/poctest/3508834.mp4,/opt/live-streams/content/poctest/3508834.mp4,/opt/live-streams/content/poctest/3508834.mp4,/opt/live-streams/content/poctest/3508834.mp4,/opt/live-streams/content/poctest/3508834.mp4,/opt/live-streams/content/poctest/3508834.mp4,/opt/live-streams/content/poctest/3508834.mp4,/opt/live-streams/content/poctest/3508834.mp4,/opt/live-streams/content/poctest/3508834.mp4,/opt/live-streams/content/poctest/3508834.mp4,/opt/live-streams/content/poctest/3508834.mp4,/opt/live-streams/content/poctest/3508834.mp4,/opt/live-streams/content/poctest/3508834.mp4,/opt/live-streams/content/poctest/3508834.mp4,/opt/live-streams/content/poctest/3508834.mp4,/opt/live-streams/content/poctest/3508834.mp4,/opt/live-streams/content/poctest/3508834.mp4,/opt/live-streams/content/poctest/3508834.mp4,/opt/live-streams/content/poctest/3508834.mp4,/opt/live-streams/content/poctest/3508834.mp4" --start-plate /opt/live-streams/content/poctest/start_plate16_9.mp4 --end-plate /opt/live-streams/content/poctest/end_plate16_9.mp4 --gfx-manifest /opt/live-streams/content/poctest/3508834_gfx.json --output-path /opt/live-streams/content/poctest/output/3508834_h_30_gfx_plate_gpu.mp4 --s3-output-key packagetest/3508834_h_30_gfx_plate_gpu.mp4

Output:
{
  "tatMs": 778129,
  "steps": {
    "downloadMs": 0,
    "ffmpegMs": 522820,
    "gfxMs": 255309,
    "uploadMs": 11569
  },
  "outputPath": "/opt/live-streams/content/poctest/output/3508834_h_30_gfx_plate_gpu.mp4",
  "s3Uri": "s3://si-davs-playgroundvideos/packagetest/3508834_h_30_gfx_plate_gpu.mp4"
}
TAT (stitch): 778129 ms | Upload to S3: 11569 ms
Output on EFS: /opt/live-streams/content/poctest/output/3508834_h_30_gfx_plate_gpu.mp4
Output on S3: s3://si-davs-playgroundvideos/packagetest/3508834_h_30_gfx_plate_gpu.mp4


Exit code: 0

================================================================================
=== horizontal_30_no_gfx_no_plate ===
================================================================================
Command:
node src/index.js process-local --gpu --input-paths "/opt/live-streams/content/poctest/3508834.mp4,/opt/live-streams/content/poctest/3508834.mp4,/opt/live-streams/content/poctest/3508834.mp4,/opt/live-streams/content/poctest/3508834.mp4,/opt/live-streams/content/poctest/3508834.mp4,/opt/live-streams/content/poctest/3508834.mp4,/opt/live-streams/content/poctest/3508834.mp4,/opt/live-streams/content/poctest/3508834.mp4,/opt/live-streams/content/poctest/3508834.mp4,/opt/live-streams/content/poctest/3508834.mp4,/opt/live-streams/content/poctest/3508834.mp4,/opt/live-streams/content/poctest/3508834.mp4,/opt/live-streams/content/poctest/3508834.mp4,/opt/live-streams/content/poctest/3508834.mp4,/opt/live-streams/content/poctest/3508834.mp4,/opt/live-streams/content/poctest/3508834.mp4,/opt/live-streams/content/poctest/3508834.mp4,/opt/live-streams/content/poctest/3508834.mp4,/opt/live-streams/content/poctest/3508834.mp4,/opt/live-streams/content/poctest/3508834.mp4,/opt/live-streams/content/poctest/3508834.mp4,/opt/live-streams/content/poctest/3508834.mp4,/opt/live-streams/content/poctest/3508834.mp4,/opt/live-streams/content/poctest/3508834.mp4,/opt/live-streams/content/poctest/3508834.mp4,/opt/live-streams/content/poctest/3508834.mp4,/opt/live-streams/content/poctest/3508834.mp4,/opt/live-streams/content/poctest/3508834.mp4,/opt/live-streams/content/poctest/3508834.mp4,/opt/live-streams/content/poctest/3508834.mp4" --output-path /opt/live-streams/content/poctest/output/3508834_h_30_no_gfx_no_plate_gpu.mp4 --s3-output-key packagetest/3508834_h_30_no_gfx_no_plate_gpu.mp4

Output:
{
  "tatMs": 514381,
  "steps": {
    "downloadMs": 0,
    "ffmpegMs": 514381,
    "gfxMs": 0,
    "uploadMs": 4497
  },
  "outputPath": "/opt/live-streams/content/poctest/output/3508834_h_30_no_gfx_no_plate_gpu.mp4",
  "s3Uri": "s3://si-davs-playgroundvideos/packagetest/3508834_h_30_no_gfx_no_plate_gpu.mp4"
}
TAT (stitch): 514381 ms | Upload to S3: 4497 ms
Output on EFS: /opt/live-streams/content/poctest/output/3508834_h_30_no_gfx_no_plate_gpu.mp4
Output on S3: s3://si-davs-playgroundvideos/packagetest/3508834_h_30_no_gfx_no_plate_gpu.mp4


Exit code: 0

================================================================================
=== vertical_9_gfx_plate ===
================================================================================
Command:
node src/index.js process-local --gpu --input-paths "/opt/live-streams/content/poctest/3508834.mp4,/opt/live-streams/content/poctest/3508834.mp4,/opt/live-streams/content/poctest/3508834.mp4,/opt/live-streams/content/poctest/3508834.mp4,/opt/live-streams/content/poctest/3508834.mp4,/opt/live-streams/content/poctest/3508834.mp4,/opt/live-streams/content/poctest/3508834.mp4,/opt/live-streams/content/poctest/3508834.mp4,/opt/live-streams/content/poctest/3508834.mp4" --aspect-json-paths ",/opt/live-streams/content/poctest/3508834_crop.json,/opt/live-streams/content/poctest/3508834_crop.json,/opt/live-streams/content/poctest/3508834_crop.json,/opt/live-streams/content/poctest/3508834_crop.json,/opt/live-streams/content/poctest/3508834_crop.json,/opt/live-streams/content/poctest/3508834_crop.json,/opt/live-streams/content/poctest/3508834_crop.json,/opt/live-streams/content/poctest/3508834_crop.json,/opt/live-streams/content/poctest/3508834_crop.json," --aspect-ratio 9:16 --start-plate /opt/live-streams/content/poctest/start_plate9_16.mp4 --end-plate /opt/live-streams/content/poctest/end_plate9_16.mp4 --gfx-manifest /opt/live-streams/content/poctest/3508834_gfx.json --output-path /opt/live-streams/content/poctest/output/3508834_v_9_gfx_plate_gpu.mp4 --s3-output-key packagetest/3508834_v_9_gfx_plate_gpu.mp4

Output:
(no stdout)

Stderr:
Error: ffmpeg exited null:     frame=  166 fps= 35 q=28.0 size=       0kB time=00:00:02.96 bitrate=   0.1kbits/s speed=0.624x    frame=  185 fps= 35 q=36.0 size=       0kB time=00:00:03.34 bitrate=   0.1kbits/s speed=0.637x    frame=  185 fps= 32 q=36.0 size=       0kB time=00:00:03.34 bitrate=   0.1kbits/s speed=0.581x    frame=  185 fps= 30 q=36.0 size=       0kB time=00:00:03.34 bitrate=   0.1kbits/s speed=0.535x    frame=  185 fps= 27 q=36.0 size=    1024kB time=00:00:03.43 bitrate=2442.4kbits/s speed=0.509x    
    at ChildProcess.<anonymous> (file:///var/www/packagegenpoc/src/ffmpeg-builder.js:210:19)
    at ChildProcess.emit (node:events:514:28)
    at maybeClose (node:internal/child_process:1091:16)
    at ChildProcess._handle.onexit (node:internal/child_process:302:5)

Exit code: 1

================================================================================
=== vertical_4_gfx_plate ===
================================================================================
Command:
node src/index.js process-local --gpu --input-paths "/opt/live-streams/content/poctest/3508834.mp4,/opt/live-streams/content/poctest/3508834.mp4,/opt/live-streams/content/poctest/3508834.mp4,/opt/live-streams/content/poctest/3508834.mp4" --aspect-json-paths ",/opt/live-streams/content/poctest/3508834_crop.json,/opt/live-streams/content/poctest/3508834_crop.json,/opt/live-streams/content/poctest/3508834_crop.json,/opt/live-streams/content/poctest/3508834_crop.json," --aspect-ratio 9:16 --start-plate /opt/live-streams/content/poctest/start_plate9_16.mp4 --end-plate /opt/live-streams/content/poctest/end_plate9_16.mp4 --gfx-manifest /opt/live-streams/content/poctest/3508834_gfx.json --output-path /opt/live-streams/content/poctest/output/3508834_v_4_gfx_plate_gpu.mp4 --s3-output-key packagetest/3508834_v_4_gfx_plate_gpu.mp4

Output:
(no stdout)

Stderr:
Error: ffmpeg exited null: =N/A speed=   0x    frame=    2 fps=1.6 q=0.0 size=       0kB time=00:00:00.00 bitrate=N/A speed=   0x    frame=   67 fps= 38 q=33.0 size=       0kB time=00:00:00.98 bitrate=   0.4kbits/s speed=0.56x    frame=  133 fps= 59 q=30.0 size=       0kB time=00:00:02.30 bitrate=   0.2kbits/s speed=1.02x    frame=  169 fps= 61 q=29.0 size=       0kB time=00:00:03.02 bitrate=   0.1kbits/s speed=1.09x    frame=  185 fps= 57 q=36.0 size=     256kB time=00:00:03.34 bitrate= 628.0kbits/s speed=1.02x    
    at ChildProcess.<anonymous> (file:///var/www/packagegenpoc/src/ffmpeg-builder.js:210:19)
    at ChildProcess.emit (node:events:514:28)
    at maybeClose (node:internal/child_process:1091:16)
    at ChildProcess._handle.onexit (node:internal/child_process:302:5)

Exit code: 1

================================================================================
=== vertical_10_no_gfx_plate ===
================================================================================
Command:
node src/index.js process-local --gpu --input-paths "/opt/live-streams/content/poctest/3508834.mp4,/opt/live-streams/content/poctest/3508834.mp4,/opt/live-streams/content/poctest/3508834.mp4,/opt/live-streams/content/poctest/3508834.mp4,/opt/live-streams/content/poctest/3508834.mp4,/opt/live-streams/content/poctest/3508834.mp4,/opt/live-streams/content/poctest/3508834.mp4,/opt/live-streams/content/poctest/3508834.mp4,/opt/live-streams/content/poctest/3508834.mp4,/opt/live-streams/content/poctest/3508834.mp4" --aspect-json-paths ",/opt/live-streams/content/poctest/3508834_crop.json,/opt/live-streams/content/poctest/3508834_crop.json,/opt/live-streams/content/poctest/3508834_crop.json,/opt/live-streams/content/poctest/3508834_crop.json,/opt/live-streams/content/poctest/3508834_crop.json,/opt/live-streams/content/poctest/3508834_crop.json,/opt/live-streams/content/poctest/3508834_crop.json,/opt/live-streams/content/poctest/3508834_crop.json,/opt/live-streams/content/poctest/3508834_crop.json,/opt/live-streams/content/poctest/3508834_crop.json," --aspect-ratio 9:16 --start-plate /opt/live-streams/content/poctest/start_plate9_16.mp4 --end-plate /opt/live-streams/content/poctest/end_plate9_16.mp4 --output-path /opt/live-streams/content/poctest/output/3508834_v_10_no_gfx_plate_gpu.mp4 --s3-output-key packagetest/3508834_v_10_no_gfx_plate_gpu.mp4

Output:
(no stdout)

Stderr:
Error: ffmpeg exited null: x    frame=  153 fps= 31 q=30.0 size=       0kB time=00:00:02.70 bitrate=   0.1kbits/s speed=0.546x    frame=  183 fps= 34 q=35.0 size=       0kB time=00:00:03.30 bitrate=   0.1kbits/s speed=0.605x    frame=  185 fps= 31 q=36.0 size=       0kB time=00:00:03.34 bitrate=   0.1kbits/s speed=0.561x    frame=  185 fps= 29 q=36.0 size=       0kB time=00:00:03.34 bitrate=   0.1kbits/s speed=0.517x    frame=  185 fps= 27 q=36.0 size=     256kB time=00:00:03.34 bitrate= 628.0kbits/s speed=0.48x    
    at ChildProcess.<anonymous> (file:///var/www/packagegenpoc/src/ffmpeg-builder.js:210:19)
    at ChildProcess.emit (node:events:514:28)
    at maybeClose (node:internal/child_process:1091:16)
    at ChildProcess._handle.onexit (node:internal/child_process:302:5)

Exit code: 1

================================================================================
=== vertical_10_no_gfx_no_plate ===
================================================================================
Command:
node src/index.js process-local --gpu --input-paths "/opt/live-streams/content/poctest/3508834.mp4,/opt/live-streams/content/poctest/3508834.mp4,/opt/live-streams/content/poctest/3508834.mp4,/opt/live-streams/content/poctest/3508834.mp4,/opt/live-streams/content/poctest/3508834.mp4,/opt/live-streams/content/poctest/3508834.mp4,/opt/live-streams/content/poctest/3508834.mp4,/opt/live-streams/content/poctest/3508834.mp4,/opt/live-streams/content/poctest/3508834.mp4,/opt/live-streams/content/poctest/3508834.mp4" --aspect-json-paths "/opt/live-streams/content/poctest/3508834_crop.json,/opt/live-streams/content/poctest/3508834_crop.json,/opt/live-streams/content/poctest/3508834_crop.json,/opt/live-streams/content/poctest/3508834_crop.json,/opt/live-streams/content/poctest/3508834_crop.json,/opt/live-streams/content/poctest/3508834_crop.json,/opt/live-streams/content/poctest/3508834_crop.json,/opt/live-streams/content/poctest/3508834_crop.json,/opt/live-streams/content/poctest/3508834_crop.json,/opt/live-streams/content/poctest/3508834_crop.json" --aspect-ratio 9:16 --output-path /opt/live-streams/content/poctest/output/3508834_v_10_no_gfx_no_plate_gpu.mp4 --s3-output-key packagetest/3508834_v_10_no_gfx_no_plate_gpu.mp4

Output:
{
  "tatMs": 236133,
  "steps": {
    "downloadMs": 0,
    "ffmpegMs": 119555,
    "gfxMs": 0,
    "uploadMs": 1543
  },
  "outputPath": "/opt/live-streams/content/poctest/output/3508834_v_10_no_gfx_no_plate_gpu.mp4",
  "s3Uri": "s3://si-davs-playgroundvideos/packagetest/3508834_v_10_no_gfx_no_plate_gpu.mp4"
}
TAT (stitch): 236133 ms | Upload to S3: 1543 ms
Output on EFS: /opt/live-streams/content/poctest/output/3508834_v_10_no_gfx_no_plate_gpu.mp4
Output on S3: s3://si-davs-playgroundvideos/packagetest/3508834_v_10_no_gfx_no_plate_gpu.mp4


Exit code: 0

================================================================================
=== vertical_12_gfx_plate ===
================================================================================
Command:
node src/index.js process-local --gpu --input-paths "/opt/live-streams/content/poctest/3508834.mp4,/opt/live-streams/content/poctest/3508834.mp4,/opt/live-streams/content/poctest/3508834.mp4,/opt/live-streams/content/poctest/3508834.mp4,/opt/live-streams/content/poctest/3508834.mp4,/opt/live-streams/content/poctest/3508834.mp4,/opt/live-streams/content/poctest/3508834.mp4,/opt/live-streams/content/poctest/3508834.mp4,/opt/live-streams/content/poctest/3508834.mp4,/opt/live-streams/content/poctest/3508834.mp4,/opt/live-streams/content/poctest/3508834.mp4,/opt/live-streams/content/poctest/3508834.mp4" --aspect-json-paths ",/opt/live-streams/content/poctest/3508834_crop.json,/opt/live-streams/content/poctest/3508834_crop.json,/opt/live-streams/content/poctest/3508834_crop.json,/opt/live-streams/content/poctest/3508834_crop.json,/opt/live-streams/content/poctest/3508834_crop.json,/opt/live-streams/content/poctest/3508834_crop.json,/opt/live-streams/content/poctest/3508834_crop.json,/opt/live-streams/content/poctest/3508834_crop.json,/opt/live-streams/content/poctest/3508834_crop.json,/opt/live-streams/content/poctest/3508834_crop.json,/opt/live-streams/content/poctest/3508834_crop.json,/opt/live-streams/content/poctest/3508834_crop.json," --aspect-ratio 9:16 --start-plate /opt/live-streams/content/poctest/start_plate9_16.mp4 --end-plate /opt/live-streams/content/poctest/end_plate9_16.mp4 --gfx-manifest /opt/live-streams/content/poctest/3508834_gfx.json --output-path /opt/live-streams/content/poctest/output/3508834_v_12_gfx_plate_gpu.mp4 --s3-output-key packagetest/3508834_v_12_gfx_plate_gpu.mp4

Output:
(no stdout)

Stderr:
Error: ffmpeg exited null: x    frame=  183 fps= 34 q=35.0 size=       0kB time=00:00:03.30 bitrate=   0.1kbits/s speed=0.605x    frame=  185 fps= 31 q=36.0 size=       0kB time=00:00:03.34 bitrate=   0.1kbits/s speed=0.561x    frame=  185 fps= 29 q=36.0 size=       0kB time=00:00:03.34 bitrate=   0.1kbits/s speed=0.517x    frame=  185 fps= 27 q=36.0 size=     256kB time=00:00:03.34 bitrate= 628.0kbits/s speed=0.48x    frame=  185 fps= 25 q=36.0 size=    1024kB time=00:00:03.56 bitrate=2354.7kbits/s speed=0.477x    
    at ChildProcess.<anonymous> (file:///var/www/packagegenpoc/src/ffmpeg-builder.js:210:19)
    at ChildProcess.emit (node:events:514:28)
    at maybeClose (node:internal/child_process:1091:16)
    at ChildProcess._handle.onexit (node:internal/child_process:302:5)

Exit code: 1
